<mxfile host="app.diagrams.net" modified="2024-06-18T05:24:36.166Z" agent="Mozilla/5.0 (Windows NT 10.0; Win64; x64; rv:127.0) Gecko/20100101 Firefox/127.0" etag="jxt5vYJYTQ1bKsW_B998" version="24.5.5" type="device">
  <diagram name="Page-1" id="e7e014a7-5840-1c2e-5031-d8a46d1fe8dd">
    <mxGraphModel dx="989" dy="527" grid="1" gridSize="10" guides="1" tooltips="1" connect="1" arrows="1" fold="1" page="1" pageScale="1" pageWidth="1169" pageHeight="826" background="none" math="0" shadow="0">
      <root>
        <mxCell id="0" />
        <mxCell id="1" parent="0" />
        <mxCell id="2osVhkvkHZT5XVAxjwm4-41" value="&lt;div&gt;iPhone&lt;/div&gt;" style="swimlane;fontStyle=1;align=center;verticalAlign=top;childLayout=stackLayout;horizontal=1;startSize=26;horizontalStack=0;resizeParent=1;resizeParentMax=0;resizeLast=0;collapsible=1;marginBottom=0;whiteSpace=wrap;html=1;" vertex="1" parent="1">
          <mxGeometry x="480" y="80" width="160" height="34" as="geometry" />
        </mxCell>
        <mxCell id="2osVhkvkHZT5XVAxjwm4-43" value="" style="line;strokeWidth=1;fillColor=none;align=left;verticalAlign=middle;spacingTop=-1;spacingLeft=3;spacingRight=3;rotatable=0;labelPosition=right;points=[];portConstraint=eastwest;strokeColor=inherit;" vertex="1" parent="2osVhkvkHZT5XVAxjwm4-41">
          <mxGeometry y="26" width="160" height="8" as="geometry" />
        </mxCell>
        <mxCell id="2osVhkvkHZT5XVAxjwm4-69" style="edgeStyle=orthogonalEdgeStyle;rounded=0;orthogonalLoop=1;jettySize=auto;html=1;entryX=0;entryY=0.5;entryDx=0;entryDy=0;" edge="1" parent="1" source="2osVhkvkHZT5XVAxjwm4-45" target="2osVhkvkHZT5XVAxjwm4-41">
          <mxGeometry relative="1" as="geometry">
            <Array as="points">
              <mxPoint x="240" y="97" />
            </Array>
          </mxGeometry>
        </mxCell>
        <mxCell id="2osVhkvkHZT5XVAxjwm4-45" value="&lt;div&gt;internet&lt;/div&gt;" style="shape=folder;fontStyle=1;spacingTop=10;tabWidth=40;tabHeight=14;tabPosition=left;html=1;whiteSpace=wrap;" vertex="1" parent="1">
          <mxGeometry x="200" y="160" width="70" height="50" as="geometry" />
        </mxCell>
        <mxCell id="2osVhkvkHZT5XVAxjwm4-46" value="«interface»&lt;br&gt;&lt;div&gt;&lt;b&gt;NavegadorInternet&lt;/b&gt;&lt;/div&gt;" style="html=1;whiteSpace=wrap;" vertex="1" parent="1">
          <mxGeometry x="185" y="250" width="110" height="50" as="geometry" />
        </mxCell>
        <mxCell id="2osVhkvkHZT5XVAxjwm4-65" style="edgeStyle=orthogonalEdgeStyle;rounded=0;orthogonalLoop=1;jettySize=auto;html=1;entryX=0.5;entryY=1;entryDx=0;entryDy=0;" edge="1" parent="1" source="2osVhkvkHZT5XVAxjwm4-51" target="2osVhkvkHZT5XVAxjwm4-46">
          <mxGeometry relative="1" as="geometry" />
        </mxCell>
        <mxCell id="2osVhkvkHZT5XVAxjwm4-51" value="Dolphin" style="swimlane;fontStyle=1;align=center;verticalAlign=top;childLayout=stackLayout;horizontal=1;startSize=26;horizontalStack=0;resizeParent=1;resizeParentMax=0;resizeLast=0;collapsible=1;marginBottom=0;whiteSpace=wrap;html=1;" vertex="1" parent="1">
          <mxGeometry x="160" y="360" width="160" height="100" as="geometry" />
        </mxCell>
        <mxCell id="2osVhkvkHZT5XVAxjwm4-53" value="" style="line;strokeWidth=1;fillColor=none;align=left;verticalAlign=middle;spacingTop=-1;spacingLeft=3;spacingRight=3;rotatable=0;labelPosition=right;points=[];portConstraint=eastwest;strokeColor=inherit;" vertex="1" parent="2osVhkvkHZT5XVAxjwm4-51">
          <mxGeometry y="26" width="160" height="8" as="geometry" />
        </mxCell>
        <mxCell id="2osVhkvkHZT5XVAxjwm4-54" value="+ exibirPagina(String url)&lt;br&gt;  + adicionarNovaAba()&lt;br&gt;  + atualizarPagina()" style="text;strokeColor=none;fillColor=none;align=left;verticalAlign=top;spacingLeft=4;spacingRight=4;overflow=hidden;rotatable=0;points=[[0,0.5],[1,0.5]];portConstraint=eastwest;whiteSpace=wrap;html=1;" vertex="1" parent="2osVhkvkHZT5XVAxjwm4-51">
          <mxGeometry y="34" width="160" height="66" as="geometry" />
        </mxCell>
        <mxCell id="2osVhkvkHZT5XVAxjwm4-73" style="edgeStyle=orthogonalEdgeStyle;rounded=0;orthogonalLoop=1;jettySize=auto;html=1;entryX=0.5;entryY=1;entryDx=0;entryDy=0;" edge="1" parent="1" source="2osVhkvkHZT5XVAxjwm4-55" target="2osVhkvkHZT5XVAxjwm4-41">
          <mxGeometry relative="1" as="geometry" />
        </mxCell>
        <mxCell id="2osVhkvkHZT5XVAxjwm4-55" value="&lt;div&gt;ipod&lt;/div&gt;" style="shape=folder;fontStyle=1;spacingTop=10;tabWidth=40;tabHeight=14;tabPosition=left;html=1;whiteSpace=wrap;" vertex="1" parent="1">
          <mxGeometry x="525" y="160" width="70" height="50" as="geometry" />
        </mxCell>
        <mxCell id="2osVhkvkHZT5XVAxjwm4-56" value="«interface»&lt;br&gt;&lt;b&gt;ReprodutorMusical&lt;/b&gt;" style="html=1;whiteSpace=wrap;" vertex="1" parent="1">
          <mxGeometry x="505" y="240" width="110" height="50" as="geometry" />
        </mxCell>
        <mxCell id="2osVhkvkHZT5XVAxjwm4-71" style="edgeStyle=orthogonalEdgeStyle;rounded=0;orthogonalLoop=1;jettySize=auto;html=1;entryX=0.5;entryY=1;entryDx=0;entryDy=0;" edge="1" parent="1" source="2osVhkvkHZT5XVAxjwm4-57" target="2osVhkvkHZT5XVAxjwm4-56">
          <mxGeometry relative="1" as="geometry" />
        </mxCell>
        <mxCell id="2osVhkvkHZT5XVAxjwm4-57" value="Vlc" style="swimlane;fontStyle=1;align=center;verticalAlign=top;childLayout=stackLayout;horizontal=1;startSize=26;horizontalStack=0;resizeParent=1;resizeParentMax=0;resizeLast=0;collapsible=1;marginBottom=0;whiteSpace=wrap;html=1;" vertex="1" parent="1">
          <mxGeometry x="455" y="360" width="210" height="90" as="geometry" />
        </mxCell>
        <mxCell id="2osVhkvkHZT5XVAxjwm4-58" value="" style="line;strokeWidth=1;fillColor=none;align=left;verticalAlign=middle;spacingTop=-1;spacingLeft=3;spacingRight=3;rotatable=0;labelPosition=right;points=[];portConstraint=eastwest;strokeColor=inherit;" vertex="1" parent="2osVhkvkHZT5XVAxjwm4-57">
          <mxGeometry y="26" width="210" height="8" as="geometry" />
        </mxCell>
        <mxCell id="2osVhkvkHZT5XVAxjwm4-59" value="+ tocar()&lt;br&gt;+ pausar()&lt;br&gt;  + selecionarMusica(String musica)" style="text;strokeColor=none;fillColor=none;align=left;verticalAlign=top;spacingLeft=4;spacingRight=4;overflow=hidden;rotatable=0;points=[[0,0.5],[1,0.5]];portConstraint=eastwest;whiteSpace=wrap;html=1;" vertex="1" parent="2osVhkvkHZT5XVAxjwm4-57">
          <mxGeometry y="34" width="210" height="56" as="geometry" />
        </mxCell>
        <mxCell id="2osVhkvkHZT5XVAxjwm4-76" style="edgeStyle=orthogonalEdgeStyle;rounded=0;orthogonalLoop=1;jettySize=auto;html=1;entryX=1;entryY=0.5;entryDx=0;entryDy=0;" edge="1" parent="1" source="2osVhkvkHZT5XVAxjwm4-60" target="2osVhkvkHZT5XVAxjwm4-41">
          <mxGeometry relative="1" as="geometry">
            <Array as="points">
              <mxPoint x="905" y="97" />
            </Array>
          </mxGeometry>
        </mxCell>
        <mxCell id="2osVhkvkHZT5XVAxjwm4-60" value="&lt;div&gt;ipod&lt;/div&gt;" style="shape=folder;fontStyle=1;spacingTop=10;tabWidth=40;tabHeight=14;tabPosition=left;html=1;whiteSpace=wrap;" vertex="1" parent="1">
          <mxGeometry x="870" y="160" width="70" height="50" as="geometry" />
        </mxCell>
        <mxCell id="2osVhkvkHZT5XVAxjwm4-61" value="«interface»&lt;br&gt;&lt;b&gt;AparelhoTelefonico&lt;/b&gt;" style="html=1;whiteSpace=wrap;" vertex="1" parent="1">
          <mxGeometry x="850" y="240" width="110" height="50" as="geometry" />
        </mxCell>
        <mxCell id="2osVhkvkHZT5XVAxjwm4-74" style="edgeStyle=orthogonalEdgeStyle;rounded=0;orthogonalLoop=1;jettySize=auto;html=1;entryX=0.5;entryY=1;entryDx=0;entryDy=0;" edge="1" parent="1" source="2osVhkvkHZT5XVAxjwm4-62" target="2osVhkvkHZT5XVAxjwm4-61">
          <mxGeometry relative="1" as="geometry" />
        </mxCell>
        <mxCell id="2osVhkvkHZT5XVAxjwm4-62" value="Discador" style="swimlane;fontStyle=1;align=center;verticalAlign=top;childLayout=stackLayout;horizontal=1;startSize=26;horizontalStack=0;resizeParent=1;resizeParentMax=0;resizeLast=0;collapsible=1;marginBottom=0;whiteSpace=wrap;html=1;" vertex="1" parent="1">
          <mxGeometry x="800" y="360" width="210" height="90" as="geometry" />
        </mxCell>
        <mxCell id="2osVhkvkHZT5XVAxjwm4-63" value="" style="line;strokeWidth=1;fillColor=none;align=left;verticalAlign=middle;spacingTop=-1;spacingLeft=3;spacingRight=3;rotatable=0;labelPosition=right;points=[];portConstraint=eastwest;strokeColor=inherit;" vertex="1" parent="2osVhkvkHZT5XVAxjwm4-62">
          <mxGeometry y="26" width="210" height="8" as="geometry" />
        </mxCell>
        <mxCell id="2osVhkvkHZT5XVAxjwm4-64" value="&lt;div&gt;+ ligar(String numero)&amp;nbsp;&lt;/div&gt;&lt;div&gt;+ atender()&amp;nbsp;&lt;/div&gt;&lt;div&gt;+ iniciarCorreioVoz()&lt;/div&gt;" style="text;strokeColor=none;fillColor=none;align=left;verticalAlign=top;spacingLeft=4;spacingRight=4;overflow=hidden;rotatable=0;points=[[0,0.5],[1,0.5]];portConstraint=eastwest;whiteSpace=wrap;html=1;" vertex="1" parent="2osVhkvkHZT5XVAxjwm4-62">
          <mxGeometry y="34" width="210" height="56" as="geometry" />
        </mxCell>
        <mxCell id="2osVhkvkHZT5XVAxjwm4-68" style="edgeStyle=orthogonalEdgeStyle;rounded=0;orthogonalLoop=1;jettySize=auto;html=1;entryX=0.57;entryY=1.002;entryDx=0;entryDy=0;entryPerimeter=0;" edge="1" parent="1" source="2osVhkvkHZT5XVAxjwm4-46" target="2osVhkvkHZT5XVAxjwm4-45">
          <mxGeometry relative="1" as="geometry" />
        </mxCell>
        <mxCell id="2osVhkvkHZT5XVAxjwm4-72" style="edgeStyle=orthogonalEdgeStyle;rounded=0;orthogonalLoop=1;jettySize=auto;html=1;entryX=0.5;entryY=1;entryDx=0;entryDy=0;entryPerimeter=0;" edge="1" parent="1" source="2osVhkvkHZT5XVAxjwm4-56" target="2osVhkvkHZT5XVAxjwm4-55">
          <mxGeometry relative="1" as="geometry" />
        </mxCell>
        <mxCell id="2osVhkvkHZT5XVAxjwm4-75" style="edgeStyle=orthogonalEdgeStyle;rounded=0;orthogonalLoop=1;jettySize=auto;html=1;entryX=0.5;entryY=1;entryDx=0;entryDy=0;entryPerimeter=0;" edge="1" parent="1" source="2osVhkvkHZT5XVAxjwm4-61" target="2osVhkvkHZT5XVAxjwm4-60">
          <mxGeometry relative="1" as="geometry" />
        </mxCell>
      </root>
    </mxGraphModel>
  </diagram>
</mxfile>
